<svg width="1317" height="722" viewBox="0 0 1317 722" fill="none" xmlns="http://www.w3.org/2000/svg">
<path d="M147.321 444.687C147.736 443.661 148.689 442.928 149.786 442.784C175.561 439.405 196.553 425.348 216.5 399.5C244.433 363.305 271.938 307.484 322.5 257.5C369.5 214.5 383.5 214 457.5 156C531.5 98.0001 598 18.0001 670 2.00001C718.5 -8.77782 801.36 28.4685 898 67.0001C953.247 89.0276 1010.12 109 1055.78 129.9C1055.93 129.967 1056.07 130.047 1056.2 130.136C1095.1 156.226 1112.74 175.439 1135.5 219C1149.21 250.681 1189.31 261.344 1242.68 267.061C1245.58 267.372 1246.4 271.204 1243.84 272.6C1231.21 279.482 1221.05 283.712 1204 289.5C1156.74 298.696 1138.45 293.672 1123.17 262.34C1123.06 262.118 1122.97 261.873 1122.92 261.631C1112.72 212.748 1092.84 188.151 1039.77 148.204C1039.59 148.07 1039.4 147.953 1039.19 147.862C988.342 124.949 948.823 112.303 883.5 86.5001C772.652 41.5618 729.449 21.4615 673.232 25.4833C673.079 25.4942 672.928 25.5165 672.778 25.5513C616.316 38.6935 545.904 112.583 472.5 176C415.289 213.327 385.675 236.282 338 281.5C310.183 313.153 297.729 332.792 281.5 371.5C304.322 317.066 344 277 419 236C494 195 507 161.5 545 156C545 156 553 155.5 558 160.5C562.357 164.857 564.057 171.873 564.421 173.604C564.477 173.868 564.487 174.142 564.461 174.41C555.234 272.914 574.256 324.84 614.548 433.435C615.083 434.875 616.63 435.71 618.118 435.329L631.574 431.879C633.368 431.419 634.32 429.458 633.584 427.759C579.439 302.691 571.015 157.825 627.225 82.8651C627.408 82.6215 627.622 82.412 627.88 82.2512C629.423 81.2913 635.397 78.0522 641 81.5001C646.35 84.7925 646.619 90.1174 646.547 91.8983C646.531 92.2987 646.393 92.6779 646.187 93.0219C597.505 174.443 598.689 278.027 656 418L666 451.5C673.501 496.555 677.611 513.946 707.004 536.127C707.326 536.37 707.712 536.554 708.105 536.643C720.299 539.389 720.877 531.465 712 503C662 388.5 760 315 764.5 125L786 150.5C781.549 282.557 701.753 393.087 726.162 469.024C726.621 470.45 728.102 471.288 729.546 470.885C744.312 466.76 750.904 454.397 762.858 416.946C762.95 416.656 763.088 416.375 763.264 416.126C792.012 375.519 849.386 346.648 939.931 333.15C942.689 332.739 943.541 329.033 941.298 327.374C872.927 276.792 855.29 157.768 786 150.5L764.5 125C853 127 872.248 194.613 908.5 252.5C928.567 284.542 949.252 307.064 967.241 315.381C967.415 315.462 967.581 315.558 967.738 315.669C985.52 328.29 998.211 332.223 1024.57 337.415C1024.85 337.471 1025.15 337.486 1025.44 337.457C1055.75 334.505 1066.26 327.453 1072.42 301.339C1072.47 301.118 1072.5 300.881 1072.5 300.654C1072.58 247.869 1063.51 220.146 1030.43 177.063C1030.15 176.697 1029.95 176.266 1029.9 175.808C1029.7 173.861 1029.6 168.265 1034.5 165C1039.37 161.753 1044.57 162.46 1046.36 162.841C1046.78 162.932 1047.17 163.154 1047.49 163.449C1092.62 204.708 1089.61 277.431 1105.13 298.514C1105.38 298.847 1105.69 299.102 1106.05 299.299L1122.71 308.302C1123.52 308.742 1124.09 309.534 1124.24 310.448L1125.36 317.155C1125.45 317.707 1125.39 318.276 1125.17 318.793C1105.12 366.915 1070.37 404.797 1047 459L1032.5 408C1032.5 408 1048 396.5 1032.5 381C1022.42 370.925 1014.67 371.835 1010.48 373.706C1008.6 374.545 1008.95 376.893 1010.77 377.849C1023.1 384.328 1028.02 391.713 1032.5 408L1047 459C1025.94 461.449 1008.96 457.283 988.31 443.391C987.49 442.839 987 441.91 987 440.922V426.81C987 426.604 986.978 426.393 986.934 426.191C972.981 361.478 838.224 367.156 818.011 404.53C817.09 406.232 818.342 408.166 820.276 408.17C847.351 408.231 883.585 385.051 921.2 393.929C921.398 393.975 921.575 394.032 921.754 394.13C930.237 398.771 953.612 442.048 954.941 456.318C955.012 457.08 954.707 457.809 954.185 458.37C921.678 493.303 903.26 542.159 869.984 555.914C869.062 556.295 868.01 556.156 867.205 555.567C855.369 546.909 849.058 538.416 840.919 516.062C840.392 514.613 841.074 512.998 842.464 512.329C873.154 497.573 881.152 486.778 884.906 456.765C884.961 456.319 885.323 455.952 885.766 455.879C914.404 451.158 913.725 431.119 882.28 431.001C882.099 431 881.907 431.017 881.729 431.05C841.81 438.36 817.492 441.369 782.863 444.341C781.727 444.439 780.731 445.187 780.305 446.244C768.099 476.536 756.849 486.051 735.752 494.874C734.235 495.508 733.479 497.234 734.075 498.767L754.913 552.414C755.677 554.38 754.226 556.5 752.116 556.5H657.539C655.528 556.5 654.089 554.552 654.614 552.61C662.084 524.979 658.238 502.961 641.606 458.912C641.007 457.327 639.193 456.549 637.62 457.178C578.568 480.773 527.3 467.584 497.597 422.207C496.929 421.186 495.715 420.64 494.514 420.855L470.144 425.207C469.122 425.389 468.265 426.096 467.873 427.057C456.498 454.938 442.18 469.935 411.23 483.234C409.246 484.087 408.728 486.689 410.307 488.163C435.189 511.39 463.603 525.858 474.984 554.652C475.24 555.3 474.759 556 474.062 556H398.086C396.396 556 395.047 554.601 395.012 552.912C394.317 519.728 366.754 499.912 319.361 480.267C318.6 479.952 318.526 478.886 319.23 478.459C359.417 454.127 372.87 434.632 380.446 386.186C380.626 385.038 378.988 384.63 378.501 385.685C329.98 490.785 276.612 459.308 191.4 487.204C190.822 487.393 190.295 487.771 189.928 488.256C157.413 531.156 139.709 545.872 106.531 557.81C106.183 557.935 105.811 557.995 105.442 557.986L50.0522 556.613C48.9802 556.586 48.6985 555.102 49.677 554.663C99.4961 532.34 122.307 506.606 147.321 444.687Z" fill="#152C18"/>
<path d="M1135 218.5C1154.51 251.006 1191.21 262.648 1261 266.5L1219 283.5C1176.76 279.787 1158.26 275.566 1147 256C1140.24 241.811 1138.37 233.434 1135 218.5Z" fill="#7E9425"/>
<path d="M889.501 123C901.501 111 972.549 138.886 1004 176C1039.68 218.107 1061.5 296.5 1036.5 312C1011.5 327.5 950.765 275.106 921.501 228C898.897 191.616 877.501 135 889.501 123Z" fill="#FBB005"/>
<mask id="mask0_80_178" style="mask-type:alpha" maskUnits="userSpaceOnUse" x="886" y="120" width="162" height="195">
<path d="M889.501 123C901.501 111 972.549 138.886 1004 176C1039.68 218.107 1061.5 296.5 1036.5 312C1011.5 327.5 950.765 275.106 921.501 228C898.897 191.616 877.501 135 889.501 123Z" fill="#D9D9D9"/>
</mask>
<g mask="url(#mask0_80_178)">
<path d="M998.499 165.5L1081.5 190L1095 287L1067.5 383.5L977.999 295C956.142 242.397 958.499 207 998.499 165.5Z" fill="#F87B22"/>
</g>
<path d="M788.977 281.198C789.318 280.413 789.569 279.55 789.702 278.705C798.405 223.416 804.102 206.32 814.843 203.722C815.603 203.538 816.396 203.529 817.172 203.626C832.983 205.589 841.772 217.909 855.772 259.812C856.248 261.237 857.059 262.578 858.098 263.662C884.5 291.203 884.521 296.39 884.499 308C884.537 321.944 869.589 329.552 833.999 343C803.566 351.639 790.785 352.11 778.511 343.713C777.833 343.249 777.221 342.69 776.735 342.028C769.552 332.262 773.232 317.391 788.977 281.198Z" fill="#F87B22"/>
<path d="M737.594 155.842C734.154 256.58 697.873 320.614 673.369 327.057C672.519 327.281 671.649 327.324 670.782 327.177C641.008 322.135 621.216 229.763 639.594 167.342C652.622 123.095 679.14 76.2254 700.594 68.8425C720.311 62.0575 737.594 96.7296 737.594 155.842Z" fill="#FBB005"/>
<path d="M19.5 386C30.2218 403.611 36.9393 411.522 54.8662 419.712C55.2785 419.901 55.7463 419.993 56.1994 419.979C111.078 418.241 133.328 393.701 156.5 362C185.338 322.547 216.73 271.952 326.791 239.849C327.834 239.544 328.579 240.867 327.736 241.551L284.302 276.756C284.101 276.918 283.874 277.057 283.639 277.163C166.519 330.259 175.865 456.483 44 439.5C10.3442 430.591 3.14448 406.984 0.0923546 392.443C0.0298512 392.145 0.0129925 391.843 0.054335 391.541C1.38357 381.849 13.5924 377.139 19.5 386Z" fill="#152C18"/>
<mask id="mask1_80_178" style="mask-type:alpha" maskUnits="userSpaceOnUse" x="0" y="239" width="329" height="203">
<path d="M19.5 386C30.2218 403.611 36.9393 411.522 54.8662 419.712C55.2785 419.901 55.7463 419.993 56.1994 419.979C111.078 418.241 133.328 393.701 156.5 362C185.338 322.547 216.73 271.952 326.791 239.849C327.834 239.544 328.579 240.867 327.736 241.551L284.302 276.756C284.101 276.918 283.874 277.057 283.639 277.163C166.519 330.259 175.865 456.483 44 439.5C10.3442 430.591 3.14448 406.984 0.0923546 392.443C0.0298512 392.145 0.0129925 391.843 0.054335 391.541C1.38357 381.849 13.5924 377.139 19.5 386Z" fill="#555555"/>
</mask>
<g mask="url(#mask1_80_178)">
<path d="M-31.5 384L-4 357.5L63 413C71.5915 437.321 116.279 419.835 168.5 413L82 505.5L-31.5 484V384Z" fill="#F87B22"/>
</g>
<circle cx="1257.5" cy="271" r="19" fill="#FBB005"/>
<mask id="mask2_80_178" style="mask-type:alpha" maskUnits="userSpaceOnUse" x="632" y="68" width="106" height="260">
<path d="M737.594 155.842C734.154 256.58 697.873 320.614 673.369 327.057C672.519 327.281 671.649 327.324 670.782 327.177C641.008 322.135 621.216 229.763 639.594 167.342C652.622 123.095 679.14 76.2254 700.594 68.8425C720.311 62.0575 737.594 96.7296 737.594 155.842Z" fill="#555555"/>
</mask>
<g mask="url(#mask2_80_178)">
<ellipse cx="747.192" cy="291.55" rx="127" ry="72.5" transform="rotate(-36.8769 747.192 291.55)" fill="#F87B22"/>
</g>
<mask id="mask3_80_178" style="mask-type:alpha" maskUnits="userSpaceOnUse" x="49" y="0" width="1197" height="558">
<path d="M147.321 444.573C147.736 443.548 148.689 442.814 149.786 442.67C175.561 439.291 196.553 425.234 216.5 399.386C244.433 363.191 271.938 307.371 322.5 257.386C369.5 214.386 383.5 213.886 457.5 155.886C531.5 97.8863 598 17.8863 670 1.88624C718.5 -8.89159 801.36 28.3548 898 66.8863C953.247 88.9139 1010.12 108.886 1055.78 129.786C1055.93 129.853 1056.07 129.933 1056.2 130.023C1095.1 156.112 1112.74 175.325 1135.5 218.886C1149.21 250.567 1189.31 261.231 1242.68 266.947C1245.58 267.258 1246.4 271.09 1243.84 272.487C1231.21 279.368 1221.05 283.598 1204 289.386C1156.74 298.582 1138.45 293.558 1123.17 262.227C1123.06 262.005 1122.97 261.759 1122.92 261.518C1112.72 212.634 1092.84 188.037 1039.77 148.09C1039.59 147.957 1039.4 147.839 1039.19 147.748C988.342 124.836 948.823 112.189 883.5 86.3863C772.652 41.448 729.449 21.3477 673.232 25.3695C673.079 25.3805 672.928 25.4027 672.778 25.4375C616.316 38.5798 545.904 112.469 472.5 175.886C415.289 213.214 385.675 236.168 338 281.386C310.183 313.039 297.729 332.678 281.5 371.386C304.322 316.953 344 276.886 419 235.886C494 194.886 507 161.386 545 155.886C545 155.886 553 155.386 558 160.386C562.357 164.744 564.057 171.759 564.421 173.491C564.477 173.754 564.487 174.028 564.461 174.296C555.234 272.801 574.256 324.727 614.548 433.321C615.083 434.761 616.63 435.597 618.118 435.215L631.574 431.765C633.368 431.305 634.32 429.345 633.584 427.645C579.439 302.577 571.015 157.711 627.225 82.7513C627.408 82.5077 627.622 82.2983 627.88 82.1374C629.423 81.1776 635.397 77.9384 641 81.3863C646.35 84.6788 646.619 90.0037 646.547 91.7846C646.531 92.185 646.393 92.5642 646.187 92.9081C597.505 174.329 598.689 277.913 656 417.886L666 451.386C673.501 496.442 677.611 513.833 707.004 536.013C707.326 536.256 707.712 536.44 708.105 536.529C720.299 539.275 720.877 531.352 712 502.886C662 388.386 760 314.886 764.5 124.886L786 150.386C781.549 282.443 701.753 392.974 726.162 468.91C726.621 470.337 728.102 471.174 729.546 470.771C744.312 466.646 750.904 454.283 762.858 416.832C762.95 416.542 763.088 416.261 763.264 416.013C792.012 375.405 849.386 346.535 939.931 333.037C942.689 332.625 943.541 328.919 941.298 327.26C872.927 276.678 855.29 157.654 786 150.386L764.5 124.886C853 126.886 872.248 194.499 908.5 252.386C928.567 284.429 949.252 306.95 967.241 315.267C967.415 315.348 967.581 315.444 967.738 315.555C985.52 328.177 998.211 332.109 1024.57 337.301C1024.85 337.357 1025.15 337.372 1025.44 337.344C1055.75 334.391 1066.26 327.339 1072.42 301.225C1072.47 301.004 1072.5 300.767 1072.5 300.54C1072.58 247.755 1063.51 220.032 1030.43 176.949C1030.15 176.584 1029.95 176.153 1029.9 175.694C1029.7 173.747 1029.6 168.151 1034.5 164.886C1039.37 161.639 1044.57 162.346 1046.36 162.727C1046.78 162.818 1047.17 163.04 1047.49 163.335C1092.62 204.594 1089.61 277.317 1105.13 298.4C1105.38 298.733 1105.69 298.988 1106.05 299.185L1122.71 308.188C1123.52 308.629 1124.09 309.421 1124.24 310.334L1125.36 317.041C1125.45 317.594 1125.39 318.162 1125.17 318.679C1105.12 366.801 1070.37 404.684 1047 458.886L1032.5 407.886C1032.5 407.886 1048 396.386 1032.5 380.886C1022.42 370.811 1014.67 371.721 1010.48 373.593C1008.6 374.431 1008.95 376.779 1010.77 377.736C1023.1 384.214 1028.02 391.599 1032.5 407.886L1047 458.886C1025.94 461.335 1008.96 457.169 988.31 443.277C987.49 442.726 987 441.796 987 440.808V426.696C987 426.49 986.978 426.279 986.934 426.077C972.981 361.364 838.224 367.042 818.011 404.417C817.09 406.118 818.342 408.052 820.276 408.057C847.351 408.118 883.585 384.937 921.2 393.815C921.398 393.862 921.575 393.918 921.754 394.016C930.237 398.657 953.612 441.934 954.941 456.204C955.012 456.966 954.707 457.695 954.185 458.256C921.678 493.19 903.26 542.046 869.984 555.8C869.062 556.181 868.01 556.042 867.205 555.453C855.369 546.795 849.058 538.303 840.919 515.948C840.392 514.499 841.074 512.884 842.464 512.216C873.154 497.459 881.152 486.664 884.906 456.651C884.961 456.206 885.323 455.838 885.766 455.765C914.404 451.044 913.725 431.005 882.28 430.887C882.099 430.886 881.907 430.903 881.729 430.936C841.81 438.246 817.492 441.256 782.863 444.227C781.727 444.325 780.731 445.073 780.305 446.131C768.099 476.422 756.849 485.937 735.752 494.76C734.235 495.395 733.479 497.12 734.075 498.653L754.913 552.3C755.677 554.266 754.226 556.386 752.116 556.386H657.539C655.528 556.386 654.089 554.439 654.614 552.497C662.084 524.865 658.238 502.848 641.606 458.798C641.007 457.213 639.193 456.435 637.62 457.064C578.568 480.659 527.3 467.471 497.597 422.093C496.929 421.072 495.715 420.527 494.514 420.741L470.144 425.093C469.122 425.275 468.265 425.982 467.873 426.944C456.498 454.824 442.18 469.821 411.23 483.121C409.246 483.973 408.728 486.575 410.307 488.049C435.189 511.276 463.603 525.745 474.984 554.538C475.24 555.186 474.759 555.886 474.062 555.886H398.086C396.396 555.886 395.047 554.488 395.012 552.798C394.317 519.615 366.754 499.798 319.361 480.153C318.6 479.838 318.526 478.772 319.23 478.346C359.417 454.014 372.87 434.519 380.446 386.072C380.626 384.924 378.988 384.516 378.501 385.571C329.98 490.672 276.612 459.194 191.4 487.09C190.822 487.279 190.295 487.657 189.928 488.142C157.413 531.042 139.709 545.759 106.531 557.696C106.183 557.821 105.811 557.882 105.442 557.872L50.0522 556.499C48.9802 556.473 48.6985 554.988 49.677 554.549C99.4961 532.226 122.307 506.493 147.321 444.573Z" fill="#819526"/>
</mask>
<g mask="url(#mask3_80_178)">
<path d="M465.198 206.577C486.698 192.577 504.198 141 570.198 152.577L577.698 295.077L622.198 435.577C562.198 447.077 514.198 408.577 504.198 383.577C459.198 320.577 348.698 269.077 465.198 206.577Z" fill="#819526"/>
</g>
<mask id="mask4_80_178" style="mask-type:alpha" maskUnits="userSpaceOnUse" x="49" y="0" width="1197" height="558">
<path d="M147.321 444.573C147.736 443.548 148.689 442.814 149.786 442.67C175.561 439.291 196.553 425.234 216.5 399.386C244.433 363.191 271.938 307.371 322.5 257.386C369.5 214.386 383.5 213.886 457.5 155.886C531.5 97.8863 598 17.8863 670 1.88624C718.5 -8.89159 801.36 28.3548 898 66.8863C953.247 88.9139 1010.12 108.886 1055.78 129.786C1055.93 129.853 1056.07 129.933 1056.2 130.023C1095.1 156.112 1112.74 175.325 1135.5 218.886C1149.21 250.567 1189.31 261.231 1242.68 266.947C1245.58 267.258 1246.4 271.09 1243.84 272.487C1231.21 279.368 1221.05 283.598 1204 289.386C1156.74 298.582 1138.45 293.558 1123.17 262.227C1123.06 262.005 1122.97 261.759 1122.92 261.518C1112.72 212.634 1092.84 188.037 1039.77 148.09C1039.59 147.957 1039.4 147.839 1039.19 147.748C988.342 124.836 948.823 112.189 883.5 86.3863C772.652 41.448 729.449 21.3477 673.232 25.3695C673.079 25.3805 672.928 25.4027 672.778 25.4375C616.316 38.5798 545.904 112.469 472.5 175.886C415.289 213.214 385.675 236.168 338 281.386C310.183 313.039 297.729 332.678 281.5 371.386C304.322 316.953 344 276.886 419 235.886C494 194.886 507 161.386 545 155.886C545 155.886 553 155.386 558 160.386C562.357 164.744 564.057 171.759 564.421 173.491C564.477 173.754 564.487 174.028 564.461 174.296C555.234 272.801 574.256 324.727 614.548 433.321C615.083 434.761 616.63 435.597 618.118 435.215L631.574 431.765C633.368 431.305 634.32 429.345 633.584 427.645C579.439 302.577 571.015 157.711 627.225 82.7513C627.408 82.5077 627.622 82.2983 627.88 82.1374C629.423 81.1776 635.397 77.9384 641 81.3863C646.35 84.6788 646.619 90.0037 646.547 91.7846C646.531 92.185 646.393 92.5642 646.187 92.9081C597.505 174.329 598.689 277.913 656 417.886L666 451.386C673.501 496.442 677.611 513.833 707.004 536.013C707.326 536.256 707.712 536.44 708.105 536.529C720.299 539.275 720.877 531.352 712 502.886C662 388.386 760 314.886 764.5 124.886L786 150.386C781.549 282.443 701.753 392.974 726.162 468.91C726.621 470.337 728.102 471.174 729.546 470.771C744.312 466.646 750.904 454.283 762.858 416.832C762.95 416.542 763.088 416.261 763.264 416.013C792.012 375.405 849.386 346.535 939.931 333.037C942.689 332.625 943.541 328.919 941.298 327.26C872.927 276.678 855.29 157.654 786 150.386L764.5 124.886C853 126.886 872.248 194.499 908.5 252.386C928.567 284.429 949.252 306.95 967.241 315.267C967.415 315.348 967.581 315.444 967.738 315.555C985.52 328.177 998.211 332.109 1024.57 337.301C1024.85 337.357 1025.15 337.372 1025.44 337.344C1055.75 334.391 1066.26 327.339 1072.42 301.225C1072.47 301.004 1072.5 300.767 1072.5 300.54C1072.58 247.755 1063.51 220.032 1030.43 176.949C1030.15 176.584 1029.95 176.153 1029.9 175.694C1029.7 173.747 1029.6 168.151 1034.5 164.886C1039.37 161.639 1044.57 162.346 1046.36 162.727C1046.78 162.818 1047.17 163.04 1047.49 163.335C1092.62 204.594 1089.61 277.317 1105.13 298.4C1105.38 298.733 1105.69 298.988 1106.05 299.185L1122.71 308.188C1123.52 308.629 1124.09 309.421 1124.24 310.334L1125.36 317.041C1125.45 317.594 1125.39 318.162 1125.17 318.679C1105.12 366.801 1070.37 404.684 1047 458.886L1032.5 407.886C1032.5 407.886 1048 396.386 1032.5 380.886C1022.42 370.811 1014.67 371.721 1010.48 373.593C1008.6 374.431 1008.95 376.779 1010.77 377.736C1023.1 384.214 1028.02 391.599 1032.5 407.886L1047 458.886C1025.94 461.335 1008.96 457.169 988.31 443.277C987.49 442.726 987 441.796 987 440.808V426.696C987 426.49 986.978 426.279 986.934 426.077C972.981 361.364 838.224 367.042 818.011 404.417C817.09 406.118 818.342 408.052 820.276 408.057C847.351 408.118 883.585 384.937 921.2 393.815C921.398 393.862 921.575 393.918 921.754 394.016C930.237 398.657 953.612 441.934 954.941 456.204C955.012 456.966 954.707 457.695 954.185 458.256C921.678 493.19 903.26 542.046 869.984 555.8C869.062 556.181 868.01 556.042 867.205 555.453C855.369 546.795 849.058 538.303 840.919 515.948C840.392 514.499 841.074 512.884 842.464 512.216C873.154 497.459 881.152 486.664 884.906 456.651C884.961 456.206 885.323 455.838 885.766 455.765C914.404 451.044 913.725 431.005 882.28 430.887C882.099 430.886 881.907 430.903 881.729 430.936C841.81 438.246 817.492 441.256 782.863 444.227C781.727 444.325 780.731 445.073 780.305 446.131C768.099 476.422 756.849 485.937 735.752 494.76C734.235 495.395 733.479 497.12 734.075 498.653L754.913 552.3C755.677 554.266 754.226 556.386 752.116 556.386H657.539C655.528 556.386 654.089 554.439 654.614 552.497C662.084 524.865 658.238 502.848 641.606 458.798C641.007 457.213 639.193 456.435 637.62 457.064C578.568 480.659 527.3 467.471 497.597 422.093C496.929 421.072 495.715 420.527 494.514 420.741L470.144 425.093C469.122 425.275 468.265 425.982 467.873 426.944C456.498 454.824 442.18 469.821 411.23 483.121C409.246 483.973 408.728 486.575 410.307 488.049C435.189 511.276 463.603 525.745 474.984 554.538C475.24 555.186 474.759 555.886 474.062 555.886H398.086C396.396 555.886 395.047 554.488 395.012 552.798C394.317 519.615 366.754 499.798 319.361 480.153C318.6 479.838 318.526 478.772 319.23 478.346C359.417 454.014 372.87 434.519 380.446 386.072C380.626 384.924 378.988 384.516 378.501 385.571C329.98 490.672 276.612 459.194 191.4 487.09C190.822 487.279 190.295 487.657 189.928 488.142C157.413 531.042 139.709 545.759 106.531 557.696C106.183 557.821 105.811 557.882 105.442 557.872L50.0522 556.499C48.9802 556.473 48.6985 554.988 49.677 554.549C99.4961 532.226 122.307 506.493 147.321 444.573Z" fill="#7E9425"/>
</mask>
<g mask="url(#mask4_80_178)">
<path d="M459.5 206.5C480.5 271.5 530.5 321.386 606 351.886L620.5 418.386C486.566 337.167 402.775 320.674 281 371.5C310.5 304.5 343 269 459.5 206.5Z" fill="#3A571D"/>
</g>
<path d="M49.655 618.5H206.255C211.572 618.5 216.453 619.128 220.9 620.385C225.347 621.642 229.165 623.527 232.355 626.04C235.545 628.457 238.01 631.453 239.75 635.03C241.587 638.607 242.505 642.763 242.505 647.5C242.505 652.43 241.393 656.732 239.17 660.405C237.043 664.078 233.95 667.027 229.89 669.25C233.95 671.473 237.043 674.422 239.17 678.095C241.393 681.768 242.505 686.07 242.505 691C242.505 695.737 241.587 699.893 239.75 703.47C238.01 707.047 235.545 710.092 232.355 712.605C229.165 715.022 225.347 716.858 220.9 718.115C216.453 719.372 211.572 720 206.255 720H49.655V618.5ZM95.475 656.2H190.305C194.558 656.2 196.685 654.267 196.685 650.4C196.685 646.533 194.558 644.6 190.305 644.6H95.475V656.2ZM190.305 693.9C194.558 693.9 196.685 691.967 196.685 688.1C196.685 684.233 194.558 682.3 190.305 682.3H95.475V693.9H190.305ZM445.707 720H399.887V662L298.677 720H252.857V618.5H298.677V676.5L399.887 618.5H445.707V720ZM530.554 653.3H457.184V618.5H650.034V653.3H576.374V720H530.554V653.3ZM834.235 720H782.615L770.87 705.5H681.55L669.805 720H618.185L700.4 618.5H752.02L834.235 720ZM747.38 676.5L726.21 650.4L705.04 676.5H747.38ZM840.075 618.5H885.895V674.18L966.515 618.5H1032.92L959.41 669.25L1032.92 720H966.515L926.205 692.16L885.895 720H840.075V618.5ZM1175.09 617.05C1182.05 617.05 1188.63 618.452 1194.81 621.255C1201 624.058 1206.36 627.877 1210.91 632.71C1215.55 637.447 1219.17 643.005 1221.78 649.385C1224.49 655.668 1225.84 662.29 1225.84 669.25C1225.84 676.21 1224.49 682.88 1221.78 689.26C1219.17 695.543 1215.55 701.102 1210.91 705.935C1206.36 710.672 1201 714.442 1194.81 717.245C1188.63 720.048 1182.05 721.45 1175.09 721.45H1069.24C1062.28 721.45 1055.71 720.048 1049.52 717.245C1043.34 714.442 1037.92 710.672 1033.28 705.935C1028.74 701.102 1025.11 695.543 1022.41 689.26C1019.8 682.88 1018.49 676.21 1018.49 669.25C1018.49 662.29 1019.8 655.668 1022.41 649.385C1025.11 643.005 1028.74 637.447 1033.28 632.71C1037.92 627.877 1043.34 624.058 1049.52 621.255C1055.71 618.452 1062.28 617.05 1069.24 617.05H1175.09ZM1165.67 654.75H1078.67C1074.61 654.75 1071.18 656.152 1068.37 658.955C1065.57 661.758 1064.17 665.19 1064.17 669.25C1064.17 673.31 1065.57 676.742 1068.37 679.545C1071.18 682.348 1074.61 683.75 1078.67 683.75H1165.67C1169.73 683.75 1173.16 682.348 1175.96 679.545C1178.77 676.742 1180.17 673.31 1180.17 669.25C1180.17 665.19 1178.77 661.758 1175.96 658.955C1173.16 656.152 1169.73 654.75 1165.67 654.75Z" fill="#152C18"/>
</svg>
